<?xml version="1.0" encoding="UTF-8" standalone="no"?>
<svg
   xmlns="http://www.w3.org/2000/svg"
   xml:space="preserve"
   enable-background="new 0 0 2148.918 806.663"
   viewBox="0 0 40 39.999998"
   height="40"
   width="40"
   y="0px"
   x="0px"
   id="Layer_1"
   version="1.1">
<g
   transform="matrix(0.47368419,0,0,0.47368419,-30.210343,-14.578946)"
   id="g1011">
	<g
   id="g841">
	</g>
	
	<g
   id="g56"
   transform="translate(-1.8450266e-6,7.6793164)"><path
     
     id="path833"
     d="m 74.205634,76.331448 c 0.126564,0.282003 0.410874,0.487798 0.750789,0.543324 l 3.34578,0.543404 c 0.125767,0.22592 0.257979,0.4485 0.390668,0.669332 l -1.458941,2.690924 c -0.15019,0.274208 -0.12545,0.596623 0.06213,0.851341 0.186863,0.256229 0.509117,0.40984 0.855954,0.404987 l 3.406316,-0.03938 c 0.172703,0.196806 0.348268,0.391861 0.527574,0.583337 l -0.835749,2.898233 c -0.08456,0.294255 0.0097,0.605929 0.250263,0.825488 0.239285,0.21868 0.591133,0.31398 0.928424,0.250977 l 3.328675,-0.623509 c 0.211761,0.163952 0.427341,0.325994 0.645068,0.484775 l -0.174135,2.988362 c -0.01831,0.302448 0.143986,0.59344 0.428614,0.766778 0.28447,0.174533 0.649045,0.207148 0.965733,0.08751 l 3.116277,-1.17996 c 0.246922,0.125131 0.495197,0.249149 0.746256,0.369269 l 0.49273,2.957576 c 0.04979,0.299663 0.273332,0.557564 0.590657,0.679513 0.316289,0.122348 0.681821,0.09173 0.964539,-0.08027 l 2.790124,-1.69051 c 0.27015,0.08122 0.541495,0.159179 0.816578,0.234035 l 1.137559,2.817331 c 0.115744,0.287093 0.390587,0.50164 0.729388,0.56695 0.337605,0.06475 0.688014,-0.02744 0.926898,-0.243899 l 2.361587,-2.143544 c 0.2802,0.03254 0.56069,0.06277 0.84196,0.08861 l 1.74588,2.578125 c 0.1771,0.261002 0.49465,0.423999 0.84043,0.430602 0.34478,0.0066 0.66903,-0.144144 0.85381,-0.398385 l 1.83967,-2.509951 c 0.28217,-0.01496 0.56472,-0.0346 0.84546,-0.0564 l 2.28164,2.232004 c 0.23109,0.225525 0.57904,0.331006 0.91785,0.27914 0.34062,-0.05298 0.62382,-0.256309 0.74919,-0.53879 l 1.24106,-2.771987 c 0.27674,-0.06444 0.55095,-0.132689 0.82453,-0.202852 l 2.72513,1.795596 c 0.27707,0.183123 0.64132,0.227592 0.96255,0.116778 0.32018,-0.109699 0.55398,-0.359008 0.61452,-0.656443 l 0.60108,-2.936734 c 0.25518,-0.110494 0.50792,-0.224172 0.75985,-0.340553 l 3.07062,1.297693 c 0.31183,0.132132 0.67896,0.113119 0.96813,-0.05059 0.29035,-0.162439 0.46361,-0.446989 0.45598,-0.749834 l -0.0638,-2.993056 c 0.22298,-0.150507 0.44373,-0.304116 0.66241,-0.459796 l 3.30298,0.749835 c 0.33553,0.07526 0.69025,-0.006 0.93791,-0.2155 0.24937,-0.21033 0.35429,-0.518107 0.28081,-0.815306 l -0.72757,-2.928062 c 0.18456,-0.185271 0.36737,-0.372849 0.54691,-0.562735 l 3.40233,0.169044 c 0.34334,0.01511 0.67403,-0.123223 0.87052,-0.372212 0.19712,-0.247401 0.23212,-0.568542 0.094,-0.848397 l -1.36062,-2.744543 c 0.14114,-0.215739 0.2812,-0.433148 0.41614,-0.654056 l 3.36319,-0.415727 c 0.34183,-0.04185 0.63275,-0.236661 0.77036,-0.514288 0.13683,-0.278424 0.1,-0.599249 -0.0967,-0.849353 l -1.93996,-2.458641 c 0.0162,-0.04223 -0.15903,-2.567862 -1.71239,-4.626447 0,0 -0.0135,-0.0056 -0.0377,-0.01519 -3.53559,-4.985456 -14.53896,-8.773609 -27.63188,-9.022998 -13.848644,-0.263785 -25.506325,3.517766 -28.511393,8.818318 -1.341287,1.357355 -1.679453,3.591506 -1.63904,3.71274 l -2.02812,2.383148 c -0.206988,0.242308 -0.253763,0.561541 -0.127358,0.844818 z"
     fill="#8f1f1d"
     style="stroke-width:0.0795496" /><path
     id="path835"
     d="m 142.61785,65.662409 c -0.13747,-0.393531 -1.56896,-0.2933 -1.92463,-0.362427 l -5.22481,0.04662 c -0.13533,-0.314541 -0.27756,-0.624466 -0.42026,-0.931765 l 3.38491,-5.229197 c 0.15154,-0.39011 0.98983,-0.937015 0.78938,-1.290851 -0.19983,-0.355507 -1.4802,0.119801 -1.84181,0.135871 l -5.39562,0.959447 c -0.184,-0.272218 -0.37086,-0.54205 -0.56154,-0.806951 l 3.02528,-6.742468 c 0.0826,-0.416602 1.00692,-2.109181 0.75174,-2.411786 -0.2537,-0.301653 -1.45362,0.717377 -1.80427,0.815303 l -5.86631,3.719742 C 127.3059,53.3389 127.07799,53.11656 126.84778,52.898753 l 1.6621,-5.840057 c 0.0134,-0.426227 0.90162,-2.446948 0.60148,-2.683449 -0.29999,-0.238091 -1.32586,0.672354 -1.65384,0.849193 l -5.18346,4.042235 c -0.25996,-0.16944 -0.52121,-0.337449 -0.78532,-0.49989 l 1.23271,-6.905306 c -0.0577,-0.420579 0.44611,-2.622275 0.11273,-2.78551 -0.33205,-0.163952 -2.07658,1.754546 -2.36805,2.004173 l -4.05932,5.189023 c -0.28336,-0.107074 -0.56785,-0.209613 -0.85621,-0.307617 l -0.38437,-7.836755 c -0.1261,-0.401089 -0.0965,-1.81946 -0.45106,-1.902271 -0.35335,-0.08217 -0.80743,1.183301 -1.05243,1.49458 l -3.50839,6.979367 c -0.29289,-0.03834 -0.58595,-0.07333 -0.87989,-0.102062 L 107.4982,36.562599 C 107.30856,36.199687 107.10736,35 106.74654,35 c -0.35974,0 -0.63918,1.437463 -0.82701,1.800288 l -2.15397,7.794434 c -0.29392,0.02871 -0.58835,0.06372 -0.8806,0.102062 l -3.054551,-7.081192 c -0.245344,-0.311358 -0.662654,-1.848494 -1.014901,-1.766398 -0.354393,0.08376 -0.288048,1.229438 -0.413417,1.630527 l -0.914742,8.48214 c -0.287493,0.09801 -0.572201,0.20142 -0.856273,0.307618 L 93.85384,42.710906 c -0.292504,-0.250422 -1.922319,-2.712324 -2.255313,-2.547657 -0.331881,0.163156 -0.09284,2.738576 -0.150349,3.159076 l 0.101108,5.444616 c -0.264104,0.16244 -0.525505,0.329336 -0.786188,0.499891 l -5.065802,-4.72159 c -0.327745,-0.177556 -1.017121,-0.917447 -1.315592,-0.679433 -0.299823,0.236579 -0.05114,1.306125 -0.03754,1.73243 l 1.845233,7.300669 c -0.22966,0.217807 -0.457012,0.440148 -0.682139,0.665194 l -5.560917,-3.448 c -0.35145,-0.09705 -1.437065,-0.947039 -1.691464,-0.645386 -0.25599,0.302608 0.331244,0.621204 0.413419,1.037884 l 2.942939,7.674791 c -0.189009,0.265854 -0.376189,0.534653 -0.559552,0.806951 l -9.068977,-3.065603 c -0.358451,-0.012 -1.345741,-0.491458 -1.546048,-0.135871 -0.200625,0.353756 0.639976,0.866771 0.789373,1.256883 l 6.762674,7.36924 c -0.143032,0.3073 -0.285028,0.617226 -0.421615,0.931766 L 71.000504,64.55293 c -0.355587,0.06818 -1.290057,-0.122825 -1.428392,0.271662 -0.137463,0.395521 0.767493,0.90806 0.977346,1.254817 l 4.911475,5.289494 c -0.01599,0.06006 0.214942,3.610838 1.874428,6.467068 0,0 0.01408,0.0073 0.03969,0.02051 3.782904,6.923603 15.331842,11.961402 28.992639,11.961402 14.44932,0 26.53603,-5.636092 29.56902,-13.178432 1.37309,-1.946898 1.6831,-5.100961 1.63856,-5.270562 l 3.99004,-4.302363 c 0.21129,-0.346994 1.18977,-1.008689 1.05253,-1.40413 z"
     fill="#8f1f1d"
     style="stroke-width:0.0795496" /><path
     id="path837"
     d="m 78.129499,71.434373 c 0,0 -7.538203,1.081795 -9.23436,1.456633 -1.696079,0.374758 -0.564406,0.660023 0,0.749437 1.969409,0.312392 11.684251,0.562177 11.872783,0.624703 0.188454,0.06245 -2.638423,-2.830773 -2.638423,-2.830773 z"
     fill="#8f1f1d"
     style="stroke-width:0.0795496" /><path
     id="path839"
     d="m 133.86978,71.960513 c 0,0 7.53828,1.081876 9.23436,1.456634 1.69599,0.374839 0.5644,0.660103 0,0.749518 -1.96949,0.312391 -11.68426,0.562176 -11.8727,0.624703 -0.18854,0.06237 2.63834,-2.830855 2.63834,-2.830855 z"
     fill="#8f1f1d"
     style="stroke-width:0.0795496" /><g
     transform="matrix(0.07954964,0,0,0.07954964,58.771891,33.329457)"
     id="g847">
		<path
   id="path843"
   d="m 467.982,486.018 c 0,0 -41.096,-44.997 -82.191,0 0,0 -32.292,60.001 0,89.998 0,0 52.837,41.999 82.191,0 0,0 35.226,-33.002 0,-89.998 z" />
		<path
   
   id="path845"
   d="m 420.404,502.71 c 0,17.521 10.329,31.727 23.066,31.727 12.735,0 23.064,-14.205 23.064,-31.727 0,-17.522 -10.329,-31.728 -23.064,-31.728 -12.738,0 -23.066,14.206 -23.066,31.728 z"
   fill="#ffffff" />
	</g><g
     transform="matrix(0.07954964,0,0,0.07954964,58.771891,33.329457)"
     id="g853">
		<path
   
   id="path849"
   d="m 698.226,469.498 c 0,0 -70.494,-31.212 -89.735,38.454 0,0 -20.153,81.201 57.891,85.784 -10e-4,0 99.518,-19.168 31.844,-124.238 z" />
		<path
   
   id="path851"
   d="m 662.819,499.628 c 0,18.068 10.65,32.723 23.79,32.723 13.133,0 23.786,-14.654 23.786,-32.723 0,-18.072 -10.653,-32.723 -23.786,-32.723 -13.139,0 -23.79,14.651 -23.79,32.723 z"
   fill="#ffffff" />
	</g></g>
</g>
</svg>
